<?xml version="1.0" encoding="utf-8"?>
<!-- Generator: Adobe Illustrator 22.0.2, SVG Export Plug-In . SVG Version: 6.00 Build 0)  -->
<svg version="1.1" id="Layer_1" xmlns="http://www.w3.org/2000/svg" xmlns:xlink="http://www.w3.org/1999/xlink" x="0px" y="0px"
	 viewBox="0 0 256 48" style="enable-background:new 0 0 256 48;" xml:space="preserve">
<style type="text/css">
	.st0{fill:#868686;}
	.st1{fill:#E54800;}
</style>
<g>
	<path class="st0" d="M19.3,17c0,0,1.3,3,1.3,3.3c0,0.3-0.3,0.5-0.6,0.5h-9.8c-0.4,0-0.6-0.2-0.6-0.5c0-0.3,1.1-3.2,1.2-3.2L19.3,17
		L19.3,17z"/>
	<path class="st0" d="M43.2,13.1v6.8c0,0.4-0.3,0.8-0.8,0.8h-7.9c-0.6,0-0.8-0.4-0.8-0.9v-6.7H43.2z"/>
	<path class="st0" d="M57.7,20c0.2,0.1,0.3,0.3,0.3,0.4c0,0.3-0.2,0.3-0.4,0.3h-8.7c-0.5,0-0.8-0.4-0.8-0.9v-17
		c0-0.4,0.3-0.9,0.9-0.9h8.8C57.9,1.9,58,2,58,2.2s-0.1,0.3-0.3,0.4c-3.1,2-4.7,5.5-4.7,8.7C53.1,14.7,54.7,18.2,57.7,20z"/>
	<path class="st0" d="M43.2,2.8v6.6h-9.6V2.8c0-0.4,0.3-0.9,0.9-0.9h7.7C42.8,2,43.2,2.4,43.2,2.8z"/>
	<path class="st0" d="M28.8,2.8v17.1c0,0.4-0.3,0.8-0.8,0.8h-1.4c-0.4,0-0.6-0.3-0.8-0.5L18.1,2.9c-0.1-0.2-0.1-0.3-0.1-0.5
		c0-0.2,0.1-0.4,0.4-0.4h9.6C28.5,2,28.8,2.4,28.8,2.8z"/>
	<path class="st0" d="M11.4,2.9L4.4,20c-0.2,0.4-0.5,0.7-1,0.7H0.9c-0.5,0-0.9-0.4-0.9-0.8v-17C0,2.4,0.4,2,0.9,2h10.2
		c0.3,0,0.4,0.1,0.4,0.4C11.5,2.6,11.4,2.7,11.4,2.9z"/>
	<path class="st0" d="M78.8,2c0.6,0,0.9,0.4,0.9,0.9V20c0,0.5-0.4,0.8-0.9,0.8h-9.9c-0.2,0-0.4-0.1-0.4-0.3c0-0.1,0.1-0.3,0.3-0.4
		c2.8-1.9,4.6-5.3,4.6-8.6c0-3.3-1.6-6.8-4.7-8.7c-0.1-0.1-0.3-0.3-0.3-0.4c0-0.1,0.1-0.3,0.3-0.3C68.7,2,78.8,2,78.8,2z"/>
	<polygon class="st0" points="14.8,6.2 17.9,13.7 11.9,13.7 	"/>
	<path class="st0" d="M63.3,5.3c3.3,0,5.6,2.4,5.6,6.1s-2.2,6.1-5.6,6.1c-3.3,0-5.6-2.4-5.6-6.1C57.6,7.8,59.9,5.3,63.3,5.3z"/>
	<path class="st0" d="M89.9,3.4l-1,2.9h2L89.9,3.4z M91.9,9.1l-0.6-2h-2.6l-0.6,2h-1l2.4-6.6h1.2l2.4,6.7L91.9,9.1L91.9,9.1z"/>
	<path class="st0" d="M94.6,6.9v2.2h-0.9V4.3h0.8c0.1,0.3,0.1,0.5,0.1,0.8c0.3-0.6,0.9-0.9,1.7-0.9v0.9C95.3,5.1,94.6,5.8,94.6,6.9z
		"/>
	<polygon class="st0" points="100.2,9.1 98.7,6.8 98,7.5 98,9.1 97.1,9.1 97.1,1.9 98,1.9 98,6.3 99.8,4.3 101,4.3 99.3,6.2 
		101.3,9.1 	"/>
	<path class="st0" d="M102.1,9.1V4.3h0.9v4.8H102.1z M102.6,3.3c-0.4,0-0.6-0.3-0.6-0.6s0.3-0.6,0.6-0.6c0.3,0,0.6,0.3,0.6,0.6
		C103.2,3,102.9,3.3,102.6,3.3z"/>
	<path class="st0" d="M106.4,9.2c-1,0-1.7-0.6-1.7-1.7V5.1h-0.6V4.3h0.6V2.9h0.9v1.5h1.3v0.8h-1.3v2.5c0,0.6,0.3,0.9,0.8,0.9
		c0.3,0,0.4,0,0.6-0.1v0.8C106.8,9.2,106.7,9.2,106.4,9.2z"/>
	<path class="st0" d="M110.4,5.1c-0.8,0-1.3,0.6-1.3,1.2h2.7C111.7,5.6,111.1,5.1,110.4,5.1z M109,7c0.1,0.8,0.6,1.4,1.6,1.4
		c0.6,0,0.9-0.1,1.5-0.3l0.3,0.8c-0.5,0.2-1,0.3-1.7,0.3c-1.5,0-2.5-1.2-2.5-2.5s1-2.5,2.4-2.5s2.4,1.2,2.4,2.8H109z"/>
	<polygon class="st0" points="116.9,9.1 115.4,6.8 114.7,7.5 114.7,9.1 113.8,9.1 113.8,1.9 114.7,1.9 114.7,6.3 116.5,4.3 
		117.7,4.3 116,6.2 117.9,9.1 	"/>
	<path class="st0" d="M120.8,9.2c-1,0-1.7-0.6-1.7-1.7V5.1h-0.6V4.3h0.6V2.9h0.9v1.5h1.3v0.8H120v2.5c0,0.6,0.3,0.9,0.8,0.9
		c0.3,0,0.4,0,0.6-0.1v0.8C121.2,9.2,121.1,9.2,120.8,9.2z"/>
	<path class="st0" d="M124.6,9.2c-1.3,0-2.1-1-2.1-2.1V4.3h0.9v2.8c0,0.7,0.4,1.3,1.2,1.3s1.2-0.6,1.2-1.3V4.3h0.9v2.9
		C126.7,8.3,125.9,9.2,124.6,9.2z"/>
	<path class="st0" d="M128.9,6.9v2.2H128V4.3h0.8c0.1,0.3,0.1,0.5,0.1,0.8c0.3-0.6,0.9-0.9,1.7-0.9v0.9
		C129.6,5.1,128.9,5.8,128.9,6.9z"/>
	<rect x="131.4" y="6.4" class="st0" width="3.1" height="0.8"/>
	<path class="st0" d="M141.1,5.1c-1,0-1.5,0.8-1.5,1.7s0.6,1.7,1.5,1.7c1,0,1.5-0.8,1.5-1.7S142,5.1,141.1,5.1z M141.1,9.2
		c-1.5,0-2.5-1.2-2.5-2.5c0-1.4,1-2.5,2.5-2.5c1.5,0,2.5,1.2,2.5,2.5S142.6,9.2,141.1,9.2z"/>
	<path class="st0" d="M146.9,5.1c-1,0-1.5,0.8-1.5,1.7s0.6,1.7,1.5,1.7c1,0,1.5-0.8,1.5-1.7S147.8,5.1,146.9,5.1z M146.9,11.1
		c-0.6,0-1.3-0.2-1.9-0.5l0.3-0.8c0.6,0.3,1.2,0.4,1.5,0.4c1,0,1.4-0.5,1.4-1.4V8.5c-0.4,0.4-0.9,0.8-1.6,0.8
		c-1.3,0-2.2-1.2-2.2-2.5s0.9-2.5,2.2-2.5c0.7,0,1.3,0.3,1.7,0.8c0-0.2,0.1-0.4,0.1-0.6h0.8v4.5C149.2,10.3,148.3,11.1,146.9,11.1z"
		/>
	<path class="st0" d="M155.6,5.1c-1,0-1.5,0.8-1.5,1.7s0.6,1.7,1.5,1.7c1,0,1.5-0.8,1.5-1.7S156.6,5.1,155.6,5.1z M157.1,9.1
		c-0.1-0.2-0.1-0.4-0.1-0.6c-0.4,0.4-0.9,0.8-1.7,0.8c-1.3,0-2.2-1.2-2.2-2.5s0.9-2.5,2.2-2.5c0.7,0,1.3,0.3,1.6,0.8V2h0.9v7.2
		L157.1,9.1L157.1,9.1z"/>
	<path class="st0" d="M161.4,5.1c-0.8,0-1.3,0.6-1.3,1.2h2.7C162.7,5.6,162.2,5.1,161.4,5.1z M160,7c0.1,0.8,0.6,1.4,1.6,1.4
		c0.6,0,0.9-0.1,1.5-0.3l0.3,0.8c-0.5,0.2-1,0.3-1.7,0.3c-1.5,0-2.5-1.2-2.5-2.5s1-2.5,2.4-2.5s2.4,1.2,2.4,2.8H160z"/>
	<path class="st0" d="M166.1,9.2c-0.6,0-1.2-0.3-1.6-0.5l0.3-0.8c0.5,0.3,0.9,0.4,1.3,0.4c0.5,0,0.8-0.3,0.8-0.6
		c0-0.8-2.2-0.8-2.2-2.2c0-1,0.9-1.3,1.6-1.3c0.5,0,1.1,0.2,1.3,0.3l-0.3,0.8c-0.3-0.2-0.8-0.3-1.1-0.3c-0.4,0-0.6,0.2-0.6,0.5
		c0,0.8,2.2,0.8,2.2,2.2C167.9,8.8,167,9.2,166.1,9.2z"/>
	<path class="st0" d="M169,9.1V4.3h0.9v4.8H169z M169.4,3.3c-0.4,0-0.6-0.3-0.6-0.6s0.3-0.6,0.6-0.6c0.3,0,0.6,0.3,0.6,0.6
		C170,3,169.7,3.3,169.4,3.3z"/>
	<path class="st0" d="M173.5,5.1c-1,0-1.5,0.8-1.5,1.7s0.6,1.7,1.5,1.7c1,0,1.5-0.8,1.5-1.7S174.4,5.1,173.5,5.1z M173.5,11.1
		c-0.6,0-1.3-0.2-1.9-0.5l0.3-0.8c0.6,0.3,1.2,0.4,1.5,0.4c1,0,1.4-0.5,1.4-1.4V8.5c-0.4,0.4-0.9,0.8-1.6,0.8
		c-1.3,0-2.2-1.2-2.2-2.5s0.9-2.5,2.2-2.5c0.7,0,1.3,0.3,1.7,0.8c0-0.2,0.1-0.4,0.1-0.6h0.8v4.5C175.8,10.3,174.9,11.1,173.5,11.1z"
		/>
	<path class="st0" d="M180.4,9.1v-3c0-0.8-0.4-1.1-0.9-1.1c-0.8,0-1.4,0.7-1.4,1.9v2.2h-0.9V4.3h0.8c0.1,0.3,0.1,0.6,0.1,0.8
		c0.4-0.6,0.9-1,1.6-1c1,0,1.7,0.6,1.7,1.9v3.1H180.4z"/>
	<path class="st0" d="M186.1,9.1v-3c0-0.8-0.4-1.1-0.9-1.1c-0.8,0-1.4,0.8-1.4,1.9v2.2h-0.9V2h0.9v3.2c0.4-0.6,0.9-1,1.6-1
		c1,0,1.7,0.6,1.7,1.8v3.1H186.1z"/>
	<path class="st0" d="M196.8,5.1c-1,0-1.5,0.8-1.5,1.7s0.6,1.7,1.5,1.7c1,0,1.5-0.8,1.5-1.7S197.8,5.1,196.8,5.1z M196.9,11.1
		c-0.6,0-1.4-0.2-1.9-0.5l0.3-0.8c0.6,0.3,1.2,0.4,1.5,0.4c1,0,1.4-0.5,1.4-1.4V8.5c-0.4,0.4-0.9,0.8-1.6,0.8
		c-1.3,0-2.2-1.2-2.2-2.5s0.9-2.5,2.2-2.5c0.7,0,1.3,0.3,1.7,0.8c0-0.2,0.1-0.4,0.1-0.6h0.8v4.5C199.1,10.3,198.4,11.1,196.9,11.1z"
		/>
	<path class="st0" d="M201.7,9.2c-0.6,0-1.2-0.3-1.6-0.5l0.3-0.8c0.4,0.3,0.9,0.4,1.3,0.4c0.5,0,0.8-0.3,0.8-0.6
		c0-0.8-2.2-0.8-2.2-2.2c0-1,0.9-1.3,1.6-1.3c0.5,0,1.1,0.2,1.3,0.3l-0.3,0.8c-0.3-0.1-0.8-0.3-1.1-0.3c-0.4,0-0.6,0.2-0.6,0.5
		c0,0.8,2.2,0.8,2.2,2.2C203.5,8.8,202.5,9.2,201.7,9.2z"/>
	<polygon class="st0" points="207.6,9.1 206.1,6.8 205.4,7.5 205.4,9.1 204.5,9.1 204.5,1.9 205.4,1.9 205.4,6.3 207.2,4.3 
		208.4,4.3 206.7,6.2 208.7,9.1 	"/>
	<path class="st0" d="M211.6,5.1c-1,0-1.5,0.8-1.5,1.7s0.6,1.7,1.5,1.7c1,0,1.5-0.8,1.5-1.7S212.6,5.1,211.6,5.1z M211.6,9.2
		c-1.5,0-2.5-1.2-2.5-2.5c0-1.4,1-2.5,2.5-2.5c1.5,0,2.5,1.2,2.5,2.5S213.1,9.2,211.6,9.2z"/>
	<path class="st0" d="M216.5,9.2c-0.7,0-1.2-0.3-1.2-1V2h0.9v6.2c0,0.2,0.1,0.3,0.4,0.3L216.5,9.2z"/>
	<path class="st0" d="M219.8,5.1c-0.8,0-1.3,0.6-1.3,1.2h2.7C221.1,5.6,220.7,5.1,219.8,5.1z M218.4,7c0.1,0.8,0.6,1.4,1.6,1.4
		c0.6,0,0.9-0.1,1.5-0.3l0.3,0.8c-0.5,0.2-1,0.3-1.7,0.3c-1.5,0-2.5-1.2-2.5-2.5s1-2.5,2.4-2.5c1.4,0,2.4,1.2,2.4,2.8H218.4z"/>
	<path class="st0" d="M226.5,9.1v-3c0-0.8-0.4-1.1-0.9-1.1c-0.8,0-1.4,0.7-1.4,1.9v2.2h-0.9V4.3h0.8c0.1,0.3,0.1,0.6,0.1,0.8
		c0.4-0.6,0.9-1,1.6-1c1,0,1.7,0.6,1.7,1.9v3.1H226.5z"/>
	<path class="st0" d="M231.7,9.1V4.3h0.9v4.8H231.7z M232.2,3.3c-0.4,0-0.6-0.3-0.6-0.6s0.3-0.6,0.6-0.6c0.3,0,0.6,0.3,0.6,0.6
		C232.8,3,232.6,3.3,232.2,3.3z"/>
	<path class="st0" d="M240.2,3.3c-1.5,0-2.4,1.2-2.4,2.6s1,2.6,2.4,2.6c1.5,0,2.4-1.2,2.4-2.6S241.7,3.3,240.2,3.3z M240.2,9.2
		c-2,0-3.4-1.5-3.4-3.5c0-1.9,1.4-3.5,3.4-3.5c2.1,0,3.4,1.5,3.4,3.5S242.2,9.2,240.2,9.2z"/>
	<path class="st0" d="M246,9.2c-0.6,0-1.2-0.3-1.6-0.5l0.3-0.8c0.4,0.3,0.9,0.4,1.3,0.4c0.5,0,0.8-0.3,0.8-0.6
		c0-0.8-2.2-0.8-2.2-2.2c0-1,0.9-1.3,1.5-1.3c0.5,0,1.1,0.2,1.3,0.3l-0.3,0.8c-0.3-0.1-0.8-0.3-1.1-0.3c-0.4,0-0.6,0.2-0.6,0.5
		c0,0.8,2.2,0.8,2.2,2.2C247.7,8.8,246.8,9.2,246,9.2z"/>
	<path class="st0" d="M250,9.2c-0.7,0-1.2-0.3-1.2-1V2h0.9v6.2c0,0.2,0.1,0.3,0.4,0.3L250,9.2z"/>
	<path class="st0" d="M253.5,5.1c-1,0-1.5,0.8-1.5,1.7s0.6,1.7,1.5,1.7c1,0,1.5-0.8,1.5-1.7C255,5.8,254.4,5.1,253.5,5.1z
		 M253.5,9.2c-1.5,0-2.5-1.2-2.5-2.5c0-1.4,1-2.5,2.5-2.5c1.5,0,2.5,1.2,2.5,2.5C256,8.1,255,9.2,253.5,9.2z"/>
	<polygon class="st0" points="89.3,15.3 89.3,20.6 88.7,20.6 88.7,15.3 87,15.3 87,14.8 90.9,14.8 90.9,15.3 	"/>
	<path class="st0" d="M94.6,20.6V18c0-0.8-0.4-1.1-1-1.1c-0.8,0-1.3,0.7-1.3,1.7v2h-0.6v-6.2h0.6v2.9c0.3-0.6,0.8-0.9,1.4-0.9
		c0.8,0,1.5,0.6,1.5,1.5v2.7H94.6z"/>
	<path class="st0" d="M98.3,17c-0.7,0-1.2,0.5-1.3,1.2h2.8C99.5,17.5,99,17,98.3,17z M96.9,18.7c0.1,0.8,0.6,1.5,1.5,1.5
		c0.6,0,0.8-0.1,1.2-0.3l0.2,0.5c-0.4,0.2-0.8,0.3-1.4,0.3c-1.3,0-2.2-1-2.2-2.2s0.8-2.2,2.1-2.2s2.1,1,2.1,2.3H96.9z"/>
	<path class="st0" d="M106.6,15.3c-1.4,0-2.3,1.1-2.3,2.4c0,1.3,1,2.4,2.3,2.4c1.4,0,2.3-1.1,2.3-2.4
		C108.9,16.4,108,15.3,106.6,15.3z M106.6,20.7c-1.7,0-3-1.3-3-3c0-1.7,1.2-3,3-3c1.7,0,3,1.3,3,3C109.5,19.4,108.3,20.7,106.6,20.7
		z"/>
	<path class="st0" d="M111.6,20.7c-0.6,0-1-0.3-1.3-0.4l0.2-0.5c0.3,0.2,0.7,0.4,1.1,0.4c0.5,0,0.8-0.3,0.8-0.6c0-0.8-2-0.8-2-2.1
		c0-0.8,0.7-1.1,1.3-1.1c0.4,0,0.8,0.1,1.1,0.3l-0.1,0.5c-0.3-0.1-0.6-0.2-0.9-0.2c-0.5,0-0.7,0.3-0.7,0.5c0,0.8,2,0.8,2,2.1
		C113,20.4,112.3,20.7,111.6,20.7z"/>
	<path class="st0" d="M114.9,20.7c-0.5,0-0.9-0.2-0.9-0.8v-5.5h0.6V20c0,0.2,0.1,0.3,0.3,0.3L114.9,20.7z"/>
	<path class="st0" d="M117.9,17c-0.9,0-1.5,0.7-1.5,1.6s0.6,1.6,1.5,1.6s1.5-0.7,1.5-1.6C119.4,17.7,118.8,17,117.9,17z M117.9,20.7
		c-1.3,0-2.2-1-2.2-2.2s0.9-2.2,2.2-2.2c1.3,0,2.2,1,2.2,2.2C120.1,19.8,119.2,20.7,117.9,20.7z"/>
	<path class="st0" d="M125.1,20.7c-0.8,0-1.3-0.3-1.7-0.4l0.2-0.5c0.3,0.2,0.9,0.4,1.5,0.4c0.8,0,1.3-0.4,1.3-1c0-1.4-2.8-1.2-2.8-3
		c0-1,0.9-1.5,1.7-1.5c0.5,0,1,0.1,1.5,0.3l-0.2,0.6c-0.3-0.1-0.8-0.3-1.3-0.3c-0.7,0-1.1,0.4-1.1,0.9c0,1.3,2.8,1.2,2.8,3
		C127.1,20.2,126.1,20.7,125.1,20.7z"/>
	<path class="st0" d="M130,20.7c-1.4,0-2.2-1-2.2-2.2s0.8-2.2,2.2-2.2c0.6,0,1,0.1,1.4,0.3l-0.1,0.6c-0.4-0.1-0.7-0.3-1.3-0.3
		c-1,0-1.6,0.6-1.6,1.6s0.6,1.6,1.6,1.6c0.6,0,0.9-0.1,1.3-0.3l0.1,0.5C131.1,20.6,130.7,20.7,130,20.7z"/>
	<path class="st0" d="M135.4,20.6V18c0-0.8-0.4-1.1-1-1.1c-0.8,0-1.3,0.7-1.3,1.7v2h-0.6v-6.2h0.6v2.9c0.3-0.6,0.8-0.9,1.4-0.9
		c0.8,0,1.5,0.6,1.5,1.5v2.7H135.4z"/>
	<path class="st0" d="M139.1,17c-0.9,0-1.5,0.7-1.5,1.6s0.6,1.6,1.5,1.6s1.5-0.7,1.5-1.6C140.6,17.7,140,17,139.1,17z M139.1,20.7
		c-1.3,0-2.2-1-2.2-2.2s0.9-2.2,2.2-2.2s2.2,1,2.2,2.2C141.3,19.8,140.4,20.7,139.1,20.7z"/>
	<path class="st0" d="M144.3,17c-0.9,0-1.5,0.7-1.5,1.6s0.6,1.6,1.5,1.6s1.5-0.7,1.5-1.6S145.2,17,144.3,17z M144.3,20.7
		c-1.3,0-2.2-1-2.2-2.2s0.9-2.2,2.2-2.2s2.2,1,2.2,2.2C146.4,19.8,145.5,20.7,144.3,20.7z"/>
	<path class="st0" d="M148.4,20.7c-0.5,0-0.9-0.2-0.9-0.8v-5.5h0.6V20c0,0.2,0.1,0.3,0.3,0.3L148.4,20.7z"/>
	<path class="st0" d="M153.9,17c-0.9,0-1.5,0.7-1.5,1.6s0.6,1.6,1.5,1.6s1.5-0.7,1.5-1.6C155.4,17.7,154.8,17,153.9,17z M153.9,20.7
		c-1.3,0-2.2-1-2.2-2.2s0.9-2.2,2.2-2.2c1.3,0,2.2,1,2.2,2.2C156,19.8,155.1,20.7,153.9,20.7z"/>
	<path class="st0" d="M159.3,15c-0.1,0-0.3-0.1-0.5-0.1c-0.6,0-0.8,0.3-0.8,0.8v0.8h1.3V17H158v3.7h-0.6V17h-0.8v-0.5h0.8v-0.8
		c0-0.9,0.6-1.4,1.4-1.4c0.3,0,0.6,0.1,0.6,0.1L159.3,15z"/>
	<path class="st0" d="M164.8,15.5l-1,2.8h2L164.8,15.5z M166.7,20.6l-0.6-1.8h-2.4l-0.6,1.8h-0.7l2.2-5.8h0.8l2.2,5.8H166.7z"/>
	<path class="st0" d="M168.8,18.6v2h-0.6v-4.2h0.6c0.1,0.2,0.1,0.6,0.1,0.8l0,0c0.3-0.5,0.8-0.9,1.5-0.9v0.6
		C169.5,17,168.8,17.7,168.8,18.6z"/>
	<path class="st0" d="M173.1,20.7c-1.4,0-2.2-1-2.2-2.2s0.8-2.2,2.2-2.2c0.6,0,1,0.1,1.4,0.3l-0.1,0.6c-0.4-0.1-0.7-0.3-1.3-0.3
		c-1,0-1.6,0.6-1.6,1.6s0.6,1.6,1.5,1.6c0.6,0,0.9-0.1,1.3-0.3l0.1,0.5C174.2,20.6,173.8,20.7,173.1,20.7z"/>
	<path class="st0" d="M178.5,20.6V18c0-0.8-0.4-1.1-1-1.1c-0.8,0-1.3,0.7-1.3,1.7v2h-0.6v-6.2h0.6v2.9c0.3-0.6,0.8-0.9,1.4-0.9
		c0.8,0,1.5,0.6,1.5,1.5v2.7H178.5z"/>
	<path class="st0" d="M180.4,20.6v-4.2h0.6v4.2H180.4z M180.7,15.3c-0.3,0-0.4-0.2-0.4-0.4c0-0.3,0.2-0.4,0.4-0.4
		c0.3,0,0.4,0.2,0.4,0.4S181,15.3,180.7,15.3z"/>
	<path class="st0" d="M183.9,20.7c-0.8,0-1.3-0.4-1.3-1.4V17H182v-0.5h0.6v-1.3h0.6v1.3h1.2V17h-1.2v2.3c0,0.6,0.3,0.9,0.8,0.9
		c0.2,0,0.3,0,0.4-0.1v0.5C184.3,20.7,184.1,20.7,183.9,20.7z"/>
	<path class="st0" d="M187.2,17c-0.7,0-1.2,0.5-1.3,1.2h2.8C188.4,17.5,187.9,17,187.2,17z M185.8,18.7c0.1,0.8,0.6,1.5,1.5,1.5
		c0.6,0,0.8-0.1,1.2-0.3l0.2,0.5c-0.4,0.2-0.8,0.3-1.4,0.3c-1.3,0-2.2-1-2.2-2.2s0.8-2.2,2.1-2.2c1.2,0,2.1,1,2.1,2.3H185.8z"/>
	<path class="st0" d="M192.3,20.7c-1.4,0-2.2-1-2.2-2.2s0.8-2.2,2.2-2.2c0.6,0,1,0.1,1.4,0.3l-0.1,0.6c-0.4-0.1-0.7-0.3-1.3-0.3
		c-1,0-1.6,0.6-1.6,1.6s0.6,1.6,1.6,1.6c0.6,0,0.9-0.1,1.3-0.3l0.1,0.5C193.3,20.6,192.9,20.7,192.3,20.7z"/>
	<path class="st0" d="M196.3,20.7c-0.8,0-1.3-0.4-1.3-1.4V17h-0.6v-0.5h0.6v-1.3h0.6v1.3h1.2V17h-1.2v2.3c0,0.6,0.3,0.9,0.8,0.9
		c0.2,0,0.3,0,0.4-0.1v0.5C196.7,20.7,196.5,20.7,196.3,20.7z"/>
	<path class="st0" d="M199.5,20.7c-1.1,0-1.7-0.8-1.7-1.7v-2.5h0.6v2.4c0,0.6,0.4,1.3,1.2,1.3c0.8,0,1.2-0.6,1.2-1.3v-2.4h0.6V19
		C201.3,19.9,200.6,20.7,199.5,20.7z"/>
	<path class="st0" d="M203.2,18.6v2h-0.6v-4.2h0.6c0.1,0.2,0.1,0.6,0.1,0.8l0,0c0.3-0.5,0.8-0.9,1.5-0.9v0.6
		C203.8,17,203.2,17.7,203.2,18.6z"/>
	<path class="st0" d="M207.3,17c-0.7,0-1.2,0.5-1.3,1.2h2.8C208.5,17.5,208,17,207.3,17z M205.9,18.7c0.1,0.8,0.6,1.5,1.5,1.5
		c0.6,0,0.8-0.1,1.2-0.3l0.2,0.5c-0.4,0.2-0.8,0.3-1.4,0.3c-1.3,0-2.2-1-2.2-2.2s0.8-2.2,2.1-2.2c1.2,0,2.1,1,2.1,2.3H205.9z"/>
	<path class="st0" d="M214.8,17c-0.8,0-1.4,0.7-1.4,1.6s0.6,1.6,1.4,1.6c0.8,0,1.5-0.7,1.5-1.6S215.7,17,214.8,17z M216.3,20.6
		c-0.1-0.2-0.1-0.4-0.1-0.6c-0.3,0.4-0.8,0.8-1.5,0.8c-1.2,0-2-1-2-2.2s0.8-2.2,2-2.2c0.6,0,1.2,0.3,1.5,0.8v-0.6h0.6v4.2
		L216.3,20.6L216.3,20.6z"/>
	<path class="st0" d="M221,20.6V18c0-0.8-0.4-1.1-1-1.1c-0.8,0-1.3,0.7-1.3,1.7v2H218v-4.2h0.5c0.1,0.2,0.1,0.6,0.1,0.8v0.1
		c0.3-0.6,0.8-0.9,1.4-0.9c0.8,0,1.5,0.6,1.5,1.5v2.7H221z"/>
	<path class="st0" d="M224.7,17c-0.8,0-1.4,0.7-1.4,1.6s0.6,1.6,1.4,1.6c0.8,0,1.5-0.7,1.5-1.6C226.1,17.7,225.5,17,224.7,17z
		 M226.2,20.6c-0.1-0.2-0.1-0.4-0.1-0.6c-0.3,0.4-0.8,0.8-1.5,0.8c-1.2,0-2-1-2-2.2s0.8-2.2,2-2.2c0.6,0,1.2,0.3,1.5,0.8v-2.7h0.6
		v6.2L226.2,20.6L226.2,20.6z"/>
	<path class="st0" d="M232.4,15.3h-1.3V20h1.3c1.7,0,2.2-1.1,2.2-2.4C234.6,16.4,234,15.3,232.4,15.3z M232.5,20.6h-2v-5.9h2
		c1.9,0,2.8,1.3,2.8,3C235.3,19.3,234.4,20.6,232.5,20.6z"/>
	<path class="st0" d="M238.1,17c-0.7,0-1.2,0.5-1.3,1.2h2.8C239.4,17.5,238.8,17,238.1,17z M236.7,18.7c0.1,0.8,0.6,1.5,1.5,1.5
		c0.6,0,0.8-0.1,1.2-0.3l0.2,0.5c-0.4,0.2-0.8,0.3-1.4,0.3c-1.3,0-2.2-1-2.2-2.2s0.8-2.2,2.1-2.2c1.2,0,2.1,1,2.1,2.3L236.7,18.7
		L236.7,18.7z"/>
	<path class="st0" d="M242.3,20.7c-0.6,0-1-0.3-1.3-0.4l0.2-0.5c0.3,0.2,0.7,0.4,1.1,0.4c0.5,0,0.8-0.3,0.8-0.6c0-0.8-2-0.8-2-2.1
		c0-0.8,0.7-1.1,1.3-1.1c0.4,0,0.8,0.1,1.1,0.3l-0.1,0.5c-0.3-0.1-0.6-0.2-0.9-0.2c-0.5,0-0.7,0.3-0.7,0.5c0,0.8,2,0.8,2,2.1
		C243.7,20.4,242.9,20.7,242.3,20.7z"/>
	<path class="st0" d="M244.7,20.6v-4.2h0.6v4.2H244.7z M245,15.3c-0.3,0-0.4-0.2-0.4-0.4c0-0.3,0.2-0.4,0.4-0.4
		c0.3,0,0.4,0.2,0.4,0.4C245.5,15.2,245.2,15.3,245,15.3z"/>
	<path class="st0" d="M248.4,17c-0.8,0-1.4,0.7-1.4,1.6s0.6,1.6,1.4,1.6c0.8,0,1.5-0.7,1.5-1.6C249.9,17.7,249.3,17,248.4,17z
		 M248.5,22.5c-0.5,0-1.2-0.2-1.5-0.4l0.2-0.5c0.4,0.2,0.9,0.4,1.3,0.4c1,0,1.3-0.5,1.3-1.4v-0.4c-0.3,0.4-0.8,0.8-1.5,0.8
		c-1.2,0-2-1-2-2.2s0.8-2.2,2-2.2c0.6,0,1.2,0.3,1.5,0.8c0-0.2,0.1-0.5,0.1-0.6h0.5v4.1C250.5,21.7,249.7,22.5,248.5,22.5z"/>
	<path class="st0" d="M254.7,20.6V18c0-0.8-0.4-1.1-1-1.1c-0.8,0-1.3,0.7-1.3,1.7v2h-0.6v-4.2h0.5c0.1,0.2,0.1,0.6,0.1,0.8v0.1
		c0.3-0.6,0.8-0.9,1.4-0.9c0.8,0,1.5,0.6,1.5,1.5v2.7H254.7z"/>
	<path class="st0" d="M190.9,8.4c-0.4,0-0.6-0.1-0.9-0.3l2.2-2.4c0.2,0.3,0.3,0.6,0.3,1C192.5,7.6,191.8,8.4,190.9,8.4z M189.3,6.7
		c0-0.9,0.6-1.7,1.5-1.7c0.3,0,0.6,0.1,0.9,0.3l-2.2,2.3C189.4,7.4,189.3,7.1,189.3,6.7z M192.8,5.1l0.4-0.4l-0.4-0.4l-0.4,0.4
		c-0.4-0.3-0.9-0.4-1.5-0.4c-1.5,0-2.5,1.2-2.5,2.5c0,0.6,0.2,1.2,0.6,1.6l-0.4,0.4l0.4,0.4l0.4-0.4c0.4,0.3,0.9,0.5,1.5,0.5
		c1.5,0,2.5-1.2,2.5-2.5C193.4,6.1,193.2,5.5,192.8,5.1z"/>
</g>
<g>
	<path class="st1" d="M19.3,41c0,0,1.3,3,1.3,3.3c0,0.3-0.3,0.5-0.6,0.5h-9.8c-0.4,0-0.6-0.2-0.6-0.5c0-0.3,1.1-3.2,1.2-3.2L19.3,41
		L19.3,41z"/>
	<path class="st1" d="M43.2,37.1v6.8c0,0.4-0.3,0.8-0.8,0.8h-7.9c-0.6,0-0.8-0.4-0.8-0.9v-6.7H43.2z"/>
	<path class="st1" d="M57.7,44c0.2,0.1,0.3,0.3,0.3,0.4c0,0.3-0.2,0.3-0.4,0.3h-8.7c-0.5,0-0.8-0.4-0.8-0.9v-17
		c0-0.4,0.3-0.9,0.9-0.9h8.8c0.2,0,0.3,0.1,0.3,0.3s-0.1,0.3-0.3,0.4c-3.1,2-4.7,5.5-4.7,8.7C53.1,38.7,54.7,42.2,57.7,44z"/>
	<path class="st1" d="M43.2,26.8v6.6h-9.6v-6.6c0-0.4,0.3-0.9,0.9-0.9h7.7C42.8,26,43.2,26.4,43.2,26.8z"/>
	<path class="st1" d="M28.8,26.8v17.1c0,0.4-0.3,0.8-0.8,0.8h-1.4c-0.4,0-0.6-0.3-0.8-0.5l-7.8-17.3c-0.1-0.2-0.1-0.3-0.1-0.5
		c0-0.2,0.1-0.4,0.4-0.4h9.6C28.5,26,28.8,26.4,28.8,26.8z"/>
	<path class="st1" d="M11.4,26.9L4.4,44c-0.2,0.4-0.5,0.7-1,0.7H0.9c-0.5,0-0.9-0.4-0.9-0.8v-17C0,26.4,0.4,26,0.9,26h10.2
		c0.3,0,0.4,0.1,0.4,0.4C11.5,26.6,11.4,26.7,11.4,26.9z"/>
	<path class="st1" d="M78.8,26c0.6,0,0.9,0.4,0.9,0.9V44c0,0.5-0.4,0.8-0.9,0.8h-9.9c-0.2,0-0.4-0.1-0.4-0.3c0-0.1,0.1-0.3,0.3-0.4
		c2.8-1.9,4.6-5.3,4.6-8.6c0-3.3-1.6-6.8-4.7-8.7c-0.1-0.1-0.3-0.3-0.3-0.4c0-0.1,0.1-0.3,0.3-0.3C68.7,26,78.8,26,78.8,26z"/>
	<polygon class="st1" points="14.8,30.2 17.9,37.7 11.9,37.7 	"/>
	<path class="st1" d="M63.3,29.3c3.3,0,5.6,2.4,5.6,6.1c0,3.7-2.2,6.1-5.6,6.1c-3.3,0-5.6-2.4-5.6-6.1
		C57.6,31.8,59.9,29.3,63.3,29.3z"/>
	<path class="st1" d="M89.9,27.4l-1,2.9h2L89.9,27.4z M91.9,33.1l-0.6-2h-2.6l-0.6,2h-1l2.4-6.6h1.2l2.4,6.7L91.9,33.1L91.9,33.1z"
		/>
	<path class="st1" d="M94.6,30.9v2.2h-0.9v-4.8h0.8c0.1,0.3,0.1,0.5,0.1,0.8c0.3-0.6,0.9-0.9,1.7-0.9v0.9
		C95.3,29.1,94.6,29.8,94.6,30.9z"/>
	<polygon class="st1" points="100.2,33.1 98.7,30.8 98,31.5 98,33.1 97.1,33.1 97.1,25.9 98,25.9 98,30.3 99.8,28.3 101,28.3 
		99.3,30.2 101.3,33.1 	"/>
	<path class="st1" d="M102.1,33.1v-4.8h0.9v4.8H102.1z M102.6,27.3c-0.4,0-0.6-0.3-0.6-0.6c0-0.4,0.3-0.6,0.6-0.6
		c0.3,0,0.6,0.3,0.6,0.6C103.2,27,102.9,27.3,102.6,27.3z"/>
	<path class="st1" d="M106.4,33.2c-1,0-1.7-0.6-1.7-1.7v-2.4h-0.6v-0.8h0.6v-1.4h0.9v1.5h1.3v0.8h-1.3v2.5c0,0.6,0.3,0.9,0.8,0.9
		c0.3,0,0.4,0,0.6-0.1v0.8C106.8,33.2,106.7,33.2,106.4,33.2z"/>
	<path class="st1" d="M110.4,29.1c-0.8,0-1.3,0.6-1.3,1.2h2.7C111.7,29.6,111.1,29.1,110.4,29.1z M109,31c0.1,0.8,0.6,1.4,1.6,1.4
		c0.6,0,0.9-0.1,1.5-0.3l0.3,0.8c-0.5,0.2-1,0.3-1.7,0.3c-1.5,0-2.5-1.2-2.5-2.5s1-2.5,2.4-2.5s2.4,1.2,2.4,2.8H109z"/>
	<polygon class="st1" points="116.9,33.1 115.4,30.8 114.7,31.5 114.7,33.1 113.8,33.1 113.8,25.9 114.7,25.9 114.7,30.3 
		116.5,28.3 117.7,28.3 116,30.2 117.9,33.1 	"/>
	<path class="st1" d="M120.8,33.2c-1,0-1.7-0.6-1.7-1.7v-2.4h-0.6v-0.8h0.6v-1.4h0.9v1.5h1.3v0.8H120v2.5c0,0.6,0.3,0.9,0.8,0.9
		c0.3,0,0.4,0,0.6-0.1v0.8C121.2,33.2,121.1,33.2,120.8,33.2z"/>
	<path class="st1" d="M124.6,33.2c-1.3,0-2.1-1-2.1-2.1v-2.9h0.9v2.8c0,0.7,0.4,1.3,1.2,1.3s1.2-0.6,1.2-1.3v-2.8h0.9v2.9
		C126.7,32.3,125.9,33.2,124.6,33.2z"/>
	<path class="st1" d="M128.9,30.9v2.2H128v-4.8h0.8c0.1,0.3,0.1,0.5,0.1,0.8c0.3-0.6,0.9-0.9,1.7-0.9v0.9
		C129.6,29.1,128.9,29.8,128.9,30.9z"/>
	<rect x="131.4" y="30.4" class="st1" width="3.1" height="0.8"/>
	<path class="st1" d="M141.1,29.1c-1,0-1.5,0.8-1.5,1.7c0,0.9,0.6,1.7,1.5,1.7c1,0,1.5-0.8,1.5-1.7C142.6,29.8,142,29.1,141.1,29.1z
		 M141.1,33.2c-1.5,0-2.5-1.2-2.5-2.5c0-1.4,1-2.5,2.5-2.5c1.5,0,2.5,1.2,2.5,2.5S142.6,33.2,141.1,33.2z"/>
	<path class="st1" d="M146.9,29.1c-1,0-1.5,0.8-1.5,1.7c0,0.9,0.6,1.7,1.5,1.7c1,0,1.5-0.8,1.5-1.7
		C148.3,29.8,147.8,29.1,146.9,29.1z M146.9,35.1c-0.6,0-1.3-0.2-1.9-0.5l0.3-0.8c0.6,0.3,1.2,0.4,1.5,0.4c1,0,1.4-0.5,1.4-1.4v-0.3
		c-0.4,0.4-0.9,0.8-1.6,0.8c-1.3,0-2.2-1.2-2.2-2.5c0-1.3,0.9-2.5,2.2-2.5c0.7,0,1.3,0.3,1.7,0.8c0-0.2,0.1-0.4,0.1-0.6h0.8v4.5
		C149.2,34.3,148.3,35.1,146.9,35.1z"/>
	<path class="st1" d="M155.6,29.1c-1,0-1.5,0.8-1.5,1.7c0,0.9,0.6,1.7,1.5,1.7c1,0,1.5-0.8,1.5-1.7
		C157.1,29.8,156.6,29.1,155.6,29.1z M157.1,33.1c-0.1-0.2-0.1-0.4-0.1-0.6c-0.4,0.4-0.9,0.8-1.7,0.8c-1.3,0-2.2-1.2-2.2-2.5
		s0.9-2.5,2.2-2.5c0.7,0,1.3,0.3,1.6,0.8v-3h0.9v7.2L157.1,33.1L157.1,33.1z"/>
	<path class="st1" d="M161.4,29.1c-0.8,0-1.3,0.6-1.3,1.2h2.7C162.7,29.6,162.2,29.1,161.4,29.1z M160,31c0.1,0.8,0.6,1.4,1.6,1.4
		c0.6,0,0.9-0.1,1.5-0.3l0.3,0.8c-0.5,0.2-1,0.3-1.7,0.3c-1.5,0-2.5-1.2-2.5-2.5s1-2.5,2.4-2.5s2.4,1.2,2.4,2.8H160z"/>
	<path class="st1" d="M166.1,33.2c-0.6,0-1.2-0.3-1.6-0.5l0.3-0.8c0.5,0.3,0.9,0.4,1.3,0.4c0.5,0,0.8-0.3,0.8-0.6
		c0-0.8-2.2-0.8-2.2-2.2c0-1,0.9-1.3,1.6-1.3c0.5,0,1.1,0.2,1.3,0.3l-0.3,0.8c-0.3-0.2-0.8-0.3-1.1-0.3c-0.4,0-0.6,0.2-0.6,0.5
		c0,0.8,2.2,0.8,2.2,2.2C167.9,32.8,167,33.2,166.1,33.2z"/>
	<path class="st1" d="M169,33.1v-4.8h0.9v4.8H169z M169.4,27.3c-0.4,0-0.6-0.3-0.6-0.6c0-0.4,0.3-0.6,0.6-0.6c0.3,0,0.6,0.3,0.6,0.6
		C170,27,169.7,27.3,169.4,27.3z"/>
	<path class="st1" d="M173.5,29.1c-1,0-1.5,0.8-1.5,1.7c0,0.9,0.6,1.7,1.5,1.7c1,0,1.5-0.8,1.5-1.7
		C174.9,29.8,174.4,29.1,173.5,29.1z M173.5,35.1c-0.6,0-1.3-0.2-1.9-0.5l0.3-0.8c0.6,0.3,1.2,0.4,1.5,0.4c1,0,1.4-0.5,1.4-1.4v-0.3
		c-0.4,0.4-0.9,0.8-1.6,0.8c-1.3,0-2.2-1.2-2.2-2.5c0-1.3,0.9-2.5,2.2-2.5c0.7,0,1.3,0.3,1.7,0.8c0-0.2,0.1-0.4,0.1-0.6h0.8v4.5
		C175.8,34.3,174.9,35.1,173.5,35.1z"/>
	<path class="st1" d="M180.4,33.1v-3c0-0.8-0.4-1.1-0.9-1.1c-0.8,0-1.4,0.7-1.4,1.9v2.2h-0.9v-4.9h0.8c0.1,0.3,0.1,0.6,0.1,0.8
		c0.4-0.6,0.9-1,1.6-1c1,0,1.7,0.6,1.7,1.9v3.1H180.4z"/>
	<path class="st1" d="M186.1,33.1v-3c0-0.8-0.4-1.1-0.9-1.1c-0.8,0-1.4,0.8-1.4,1.9v2.2h-0.9V26h0.9v3.2c0.4-0.6,0.9-1,1.6-1
		c1,0,1.7,0.6,1.7,1.8v3.1H186.1z"/>
	<path class="st1" d="M196.8,29.1c-1,0-1.5,0.8-1.5,1.7c0,0.9,0.6,1.7,1.5,1.7c1,0,1.5-0.8,1.5-1.7
		C198.3,29.8,197.8,29.1,196.8,29.1z M196.9,35.1c-0.6,0-1.4-0.2-1.9-0.5l0.3-0.8c0.6,0.3,1.2,0.4,1.5,0.4c1,0,1.4-0.5,1.4-1.4v-0.3
		c-0.4,0.4-0.9,0.8-1.6,0.8c-1.3,0-2.2-1.2-2.2-2.5c0-1.3,0.9-2.5,2.2-2.5c0.7,0,1.3,0.3,1.7,0.8c0-0.2,0.1-0.4,0.1-0.6h0.8v4.5
		C199.1,34.3,198.4,35.1,196.9,35.1z"/>
	<path class="st1" d="M201.7,33.2c-0.6,0-1.2-0.3-1.6-0.5l0.3-0.8c0.4,0.3,0.9,0.4,1.3,0.4c0.5,0,0.8-0.3,0.8-0.6
		c0-0.8-2.2-0.8-2.2-2.2c0-1,0.9-1.3,1.6-1.3c0.5,0,1.1,0.2,1.3,0.3l-0.3,0.8c-0.3-0.1-0.8-0.3-1.1-0.3c-0.4,0-0.6,0.2-0.6,0.5
		c0,0.8,2.2,0.8,2.2,2.2C203.5,32.8,202.5,33.2,201.7,33.2z"/>
	<polygon class="st1" points="207.6,33.1 206.1,30.8 205.4,31.5 205.4,33.1 204.5,33.1 204.5,25.9 205.4,25.9 205.4,30.3 
		207.2,28.3 208.4,28.3 206.7,30.2 208.7,33.1 	"/>
	<path class="st1" d="M211.6,29.1c-1,0-1.5,0.8-1.5,1.7c0,0.9,0.6,1.7,1.5,1.7c1,0,1.5-0.8,1.5-1.7
		C213.2,29.8,212.6,29.1,211.6,29.1z M211.6,33.2c-1.5,0-2.5-1.2-2.5-2.5c0-1.4,1-2.5,2.5-2.5c1.5,0,2.5,1.2,2.5,2.5
		S213.1,33.2,211.6,33.2z"/>
	<path class="st1" d="M216.5,33.2c-0.7,0-1.2-0.3-1.2-1V26h0.9v6.2c0,0.2,0.1,0.3,0.4,0.3L216.5,33.2z"/>
	<path class="st1" d="M219.8,29.1c-0.8,0-1.3,0.6-1.3,1.2h2.7C221.1,29.6,220.7,29.1,219.8,29.1z M218.4,31c0.1,0.8,0.6,1.4,1.6,1.4
		c0.6,0,0.9-0.1,1.5-0.3l0.3,0.8c-0.5,0.2-1,0.3-1.7,0.3c-1.5,0-2.5-1.2-2.5-2.5s1-2.5,2.4-2.5c1.4,0,2.4,1.2,2.4,2.8H218.4z"/>
	<path class="st1" d="M226.5,33.1v-3c0-0.8-0.4-1.1-0.9-1.1c-0.8,0-1.4,0.7-1.4,1.9v2.2h-0.9v-4.9h0.8c0.1,0.3,0.1,0.6,0.1,0.8
		c0.4-0.6,0.9-1,1.6-1c1,0,1.7,0.6,1.7,1.9v3.1H226.5z"/>
	<path class="st1" d="M231.7,33.1v-4.8h0.9v4.8H231.7z M232.2,27.3c-0.4,0-0.6-0.3-0.6-0.6c0-0.4,0.3-0.6,0.6-0.6
		c0.3,0,0.6,0.3,0.6,0.6C232.8,27,232.6,27.3,232.2,27.3z"/>
	<path class="st1" d="M240.2,27.3c-1.5,0-2.4,1.2-2.4,2.6s1,2.6,2.4,2.6c1.5,0,2.4-1.2,2.4-2.6S241.7,27.3,240.2,27.3z M240.2,33.2
		c-2,0-3.4-1.5-3.4-3.5c0-1.9,1.4-3.5,3.4-3.5c2.1,0,3.4,1.5,3.4,3.5S242.2,33.2,240.2,33.2z"/>
	<path class="st1" d="M246,33.2c-0.6,0-1.2-0.3-1.6-0.5l0.3-0.8c0.4,0.3,0.9,0.4,1.3,0.4c0.5,0,0.8-0.3,0.8-0.6
		c0-0.8-2.2-0.8-2.2-2.2c0-1,0.9-1.3,1.5-1.3c0.5,0,1.1,0.2,1.3,0.3l-0.3,0.8c-0.3-0.1-0.8-0.3-1.1-0.3c-0.4,0-0.6,0.2-0.6,0.5
		c0,0.8,2.2,0.8,2.2,2.2C247.7,32.8,246.8,33.2,246,33.2z"/>
	<path class="st1" d="M250,33.2c-0.7,0-1.2-0.3-1.2-1V26h0.9v6.2c0,0.2,0.1,0.3,0.4,0.3L250,33.2z"/>
	<path class="st1" d="M253.5,29.1c-1,0-1.5,0.8-1.5,1.7c0,0.9,0.6,1.7,1.5,1.7c1,0,1.5-0.8,1.5-1.7C255,29.8,254.4,29.1,253.5,29.1z
		 M253.5,33.2c-1.5,0-2.5-1.2-2.5-2.5c0-1.4,1-2.5,2.5-2.5c1.5,0,2.5,1.2,2.5,2.5C256,32.1,255,33.2,253.5,33.2z"/>
	<polygon class="st0" points="89.3,39.3 89.3,44.6 88.7,44.6 88.7,39.3 87,39.3 87,38.8 90.9,38.8 90.9,39.3 	"/>
	<path class="st0" d="M94.6,44.6V42c0-0.8-0.4-1.1-1-1.1c-0.8,0-1.3,0.7-1.3,1.7v2h-0.6v-6.2h0.6v2.9c0.3-0.6,0.8-0.9,1.4-0.9
		c0.8,0,1.5,0.6,1.5,1.5v2.7H94.6z"/>
	<path class="st0" d="M98.3,41c-0.7,0-1.2,0.5-1.3,1.2h2.8C99.5,41.5,99,41,98.3,41z M96.9,42.7c0.1,0.8,0.6,1.5,1.5,1.5
		c0.6,0,0.8-0.1,1.2-0.3l0.2,0.5c-0.4,0.2-0.8,0.3-1.4,0.3c-1.3,0-2.2-1-2.2-2.2c0-1.2,0.8-2.2,2.1-2.2s2.1,1,2.1,2.3H96.9z"/>
	<path class="st0" d="M106.6,39.3c-1.4,0-2.3,1.1-2.3,2.4c0,1.3,1,2.4,2.3,2.4c1.4,0,2.3-1.1,2.3-2.4
		C108.9,40.4,108,39.3,106.6,39.3z M106.6,44.7c-1.7,0-3-1.3-3-3c0-1.7,1.2-3,3-3c1.7,0,3,1.3,3,3C109.5,43.4,108.3,44.7,106.6,44.7
		z"/>
	<path class="st0" d="M111.6,44.7c-0.6,0-1-0.3-1.3-0.4l0.2-0.5c0.3,0.2,0.7,0.4,1.1,0.4c0.5,0,0.8-0.3,0.8-0.6c0-0.8-2-0.8-2-2.1
		c0-0.8,0.7-1.1,1.3-1.1c0.4,0,0.8,0.1,1.1,0.3l-0.1,0.5c-0.3-0.1-0.6-0.2-0.9-0.2c-0.5,0-0.7,0.3-0.7,0.5c0,0.8,2,0.8,2,2.1
		C113,44.4,112.3,44.7,111.6,44.7z"/>
	<path class="st0" d="M114.9,44.7c-0.5,0-0.9-0.2-0.9-0.8v-5.5h0.6V44c0,0.2,0.1,0.3,0.3,0.3L114.9,44.7z"/>
	<path class="st0" d="M117.9,41c-0.9,0-1.5,0.7-1.5,1.6c0,0.9,0.6,1.6,1.5,1.6s1.5-0.7,1.5-1.6C119.4,41.7,118.8,41,117.9,41z
		 M117.9,44.7c-1.3,0-2.2-1-2.2-2.2c0-1.2,0.9-2.2,2.2-2.2c1.3,0,2.2,1,2.2,2.2C120.1,43.8,119.2,44.7,117.9,44.7z"/>
	<path class="st0" d="M125.1,44.7c-0.8,0-1.3-0.3-1.7-0.4l0.2-0.5c0.3,0.2,0.9,0.4,1.5,0.4c0.8,0,1.3-0.4,1.3-1c0-1.4-2.8-1.2-2.8-3
		c0-1,0.9-1.5,1.7-1.5c0.5,0,1,0.1,1.5,0.3l-0.2,0.6c-0.3-0.1-0.8-0.3-1.3-0.3c-0.7,0-1.1,0.4-1.1,0.9c0,1.3,2.8,1.2,2.8,3
		C127.1,44.2,126.1,44.7,125.1,44.7z"/>
	<path class="st0" d="M130,44.7c-1.4,0-2.2-1-2.2-2.2c0-1.2,0.8-2.2,2.2-2.2c0.6,0,1,0.1,1.4,0.3l-0.1,0.6c-0.4-0.1-0.7-0.3-1.3-0.3
		c-1,0-1.6,0.6-1.6,1.6c0,1,0.6,1.6,1.6,1.6c0.6,0,0.9-0.1,1.3-0.3l0.1,0.5C131.1,44.6,130.7,44.7,130,44.7z"/>
	<path class="st0" d="M135.4,44.6V42c0-0.8-0.4-1.1-1-1.1c-0.8,0-1.3,0.7-1.3,1.7v2h-0.6v-6.2h0.6v2.9c0.3-0.6,0.8-0.9,1.4-0.9
		c0.8,0,1.5,0.6,1.5,1.5v2.7H135.4z"/>
	<path class="st0" d="M139.1,41c-0.9,0-1.5,0.7-1.5,1.6c0,0.9,0.6,1.6,1.5,1.6s1.5-0.7,1.5-1.6C140.6,41.7,140,41,139.1,41z
		 M139.1,44.7c-1.3,0-2.2-1-2.2-2.2c0-1.2,0.9-2.2,2.2-2.2s2.2,1,2.2,2.2C141.3,43.8,140.4,44.7,139.1,44.7z"/>
	<path class="st0" d="M144.3,41c-0.9,0-1.5,0.7-1.5,1.6c0,0.9,0.6,1.6,1.5,1.6s1.5-0.7,1.5-1.6C145.8,41.7,145.2,41,144.3,41z
		 M144.3,44.7c-1.3,0-2.2-1-2.2-2.2c0-1.2,0.9-2.2,2.2-2.2s2.2,1,2.2,2.2C146.4,43.8,145.5,44.7,144.3,44.7z"/>
	<path class="st0" d="M148.4,44.7c-0.5,0-0.9-0.2-0.9-0.8v-5.5h0.6V44c0,0.2,0.1,0.3,0.3,0.3L148.4,44.7z"/>
	<path class="st0" d="M153.9,41c-0.9,0-1.5,0.7-1.5,1.6c0,0.9,0.6,1.6,1.5,1.6s1.5-0.7,1.5-1.6C155.4,41.7,154.8,41,153.9,41z
		 M153.9,44.7c-1.3,0-2.2-1-2.2-2.2c0-1.2,0.9-2.2,2.2-2.2c1.3,0,2.2,1,2.2,2.2C156,43.8,155.1,44.7,153.9,44.7z"/>
	<path class="st0" d="M159.3,39c-0.1,0-0.3-0.1-0.5-0.1c-0.6,0-0.8,0.3-0.8,0.8v0.8h1.3V41H158v3.7h-0.6V41h-0.8v-0.5h0.8v-0.8
		c0-0.9,0.6-1.4,1.4-1.4c0.3,0,0.6,0.1,0.6,0.1L159.3,39z"/>
	<path class="st0" d="M164.8,39.5l-1,2.8h2L164.8,39.5z M166.7,44.6l-0.6-1.8h-2.4l-0.6,1.8h-0.7l2.2-5.8h0.8l2.2,5.8H166.7z"/>
	<path class="st0" d="M168.8,42.6v2h-0.6v-4.2h0.6c0.1,0.2,0.1,0.6,0.1,0.8l0,0c0.3-0.5,0.8-0.9,1.5-0.9v0.6
		C169.5,41,168.8,41.7,168.8,42.6z"/>
	<path class="st0" d="M173.1,44.7c-1.4,0-2.2-1-2.2-2.2c0-1.2,0.8-2.2,2.2-2.2c0.6,0,1,0.1,1.4,0.3l-0.1,0.6
		c-0.4-0.1-0.7-0.3-1.3-0.3c-1,0-1.6,0.6-1.6,1.6c0,1,0.6,1.6,1.5,1.6c0.6,0,0.9-0.1,1.3-0.3l0.1,0.5
		C174.2,44.6,173.8,44.7,173.1,44.7z"/>
	<path class="st0" d="M178.5,44.6V42c0-0.8-0.4-1.1-1-1.1c-0.8,0-1.3,0.7-1.3,1.7v2h-0.6v-6.2h0.6v2.9c0.3-0.6,0.8-0.9,1.4-0.9
		c0.8,0,1.5,0.6,1.5,1.5v2.7H178.5z"/>
	<path class="st0" d="M180.4,44.6v-4.2h0.6v4.2H180.4z M180.7,39.3c-0.3,0-0.4-0.2-0.4-0.4c0-0.3,0.2-0.4,0.4-0.4
		c0.3,0,0.4,0.2,0.4,0.4C181.2,39.2,181,39.3,180.7,39.3z"/>
	<path class="st0" d="M183.9,44.7c-0.8,0-1.3-0.4-1.3-1.4V41H182v-0.5h0.6v-1.3h0.6v1.3h1.2V41h-1.2v2.3c0,0.6,0.3,0.9,0.8,0.9
		c0.2,0,0.3,0,0.4-0.1v0.5C184.3,44.7,184.1,44.7,183.9,44.7z"/>
	<path class="st0" d="M187.2,41c-0.7,0-1.2,0.5-1.3,1.2h2.8C188.4,41.5,187.9,41,187.2,41z M185.8,42.7c0.1,0.8,0.6,1.5,1.5,1.5
		c0.6,0,0.8-0.1,1.2-0.3l0.2,0.5c-0.4,0.2-0.8,0.3-1.4,0.3c-1.3,0-2.2-1-2.2-2.2c0-1.2,0.8-2.2,2.1-2.2c1.2,0,2.1,1,2.1,2.3H185.8z"
		/>
	<path class="st0" d="M192.3,44.7c-1.4,0-2.2-1-2.2-2.2c0-1.2,0.8-2.2,2.2-2.2c0.6,0,1,0.1,1.4,0.3l-0.1,0.6
		c-0.4-0.1-0.7-0.3-1.3-0.3c-1,0-1.6,0.6-1.6,1.6c0,1,0.6,1.6,1.6,1.6c0.6,0,0.9-0.1,1.3-0.3l0.1,0.5
		C193.3,44.6,192.9,44.7,192.3,44.7z"/>
	<path class="st0" d="M196.3,44.7c-0.8,0-1.3-0.4-1.3-1.4V41h-0.6v-0.5h0.6v-1.3h0.6v1.3h1.2V41h-1.2v2.3c0,0.6,0.3,0.9,0.8,0.9
		c0.2,0,0.3,0,0.4-0.1v0.5C196.7,44.7,196.5,44.7,196.3,44.7z"/>
	<path class="st0" d="M199.5,44.7c-1.1,0-1.7-0.8-1.7-1.7v-2.5h0.6v2.4c0,0.6,0.4,1.3,1.2,1.3c0.8,0,1.2-0.6,1.2-1.3v-2.4h0.6V43
		C201.3,43.9,200.6,44.7,199.5,44.7z"/>
	<path class="st0" d="M203.2,42.6v2h-0.6v-4.2h0.6c0.1,0.2,0.1,0.6,0.1,0.8l0,0c0.3-0.5,0.8-0.9,1.5-0.9v0.6
		C203.8,41,203.2,41.7,203.2,42.6z"/>
	<path class="st0" d="M207.3,41c-0.7,0-1.2,0.5-1.3,1.2h2.8C208.5,41.5,208,41,207.3,41z M205.9,42.7c0.1,0.8,0.6,1.5,1.5,1.5
		c0.6,0,0.8-0.1,1.2-0.3l0.2,0.5c-0.4,0.2-0.8,0.3-1.4,0.3c-1.3,0-2.2-1-2.2-2.2c0-1.2,0.8-2.2,2.1-2.2c1.2,0,2.1,1,2.1,2.3H205.9z"
		/>
	<path class="st0" d="M214.8,41c-0.8,0-1.4,0.7-1.4,1.6c0,0.9,0.6,1.6,1.4,1.6c0.8,0,1.5-0.7,1.5-1.6C216.2,41.7,215.7,41,214.8,41z
		 M216.3,44.6c-0.1-0.2-0.1-0.4-0.1-0.6c-0.3,0.4-0.8,0.8-1.5,0.8c-1.2,0-2-1-2-2.2s0.8-2.2,2-2.2c0.6,0,1.2,0.3,1.5,0.8v-0.6h0.6
		v4.2L216.3,44.6L216.3,44.6z"/>
	<path class="st0" d="M221,44.6V42c0-0.8-0.4-1.1-1-1.1c-0.8,0-1.3,0.7-1.3,1.7v2H218v-4.2h0.5c0.1,0.2,0.1,0.6,0.1,0.8v0.1
		c0.3-0.6,0.8-0.9,1.4-0.9c0.8,0,1.5,0.6,1.5,1.5v2.7H221z"/>
	<path class="st0" d="M224.7,41c-0.8,0-1.4,0.7-1.4,1.6c0,0.9,0.6,1.6,1.4,1.6c0.8,0,1.5-0.7,1.5-1.6C226.1,41.7,225.5,41,224.7,41z
		 M226.2,44.6c-0.1-0.2-0.1-0.4-0.1-0.6c-0.3,0.4-0.8,0.8-1.5,0.8c-1.2,0-2-1-2-2.2s0.8-2.2,2-2.2c0.6,0,1.2,0.3,1.5,0.8v-2.7h0.6
		v6.2L226.2,44.6L226.2,44.6z"/>
	<path class="st0" d="M232.4,39.3h-1.3V44h1.3c1.7,0,2.2-1.1,2.2-2.4C234.6,40.4,234,39.3,232.4,39.3z M232.5,44.6h-2v-5.9h2
		c1.9,0,2.8,1.3,2.8,3C235.3,43.3,234.4,44.6,232.5,44.6z"/>
	<path class="st0" d="M238.1,41c-0.7,0-1.2,0.5-1.3,1.2h2.8C239.4,41.5,238.8,41,238.1,41z M236.7,42.7c0.1,0.8,0.6,1.5,1.5,1.5
		c0.6,0,0.8-0.1,1.2-0.3l0.2,0.5c-0.4,0.2-0.8,0.3-1.4,0.3c-1.3,0-2.2-1-2.2-2.2s0.8-2.2,2.1-2.2c1.2,0,2.1,1,2.1,2.3L236.7,42.7
		L236.7,42.7z"/>
	<path class="st0" d="M242.3,44.7c-0.6,0-1-0.3-1.3-0.4l0.2-0.5c0.3,0.2,0.7,0.4,1.1,0.4c0.5,0,0.8-0.3,0.8-0.6c0-0.8-2-0.8-2-2.1
		c0-0.8,0.7-1.1,1.3-1.1c0.4,0,0.8,0.1,1.1,0.3l-0.1,0.5c-0.3-0.1-0.6-0.2-0.9-0.2c-0.5,0-0.7,0.3-0.7,0.5c0,0.8,2,0.8,2,2.1
		C243.7,44.4,242.9,44.7,242.3,44.7z"/>
	<path class="st0" d="M244.7,44.6v-4.2h0.6v4.2H244.7z M245,39.3c-0.3,0-0.4-0.2-0.4-0.4c0-0.3,0.2-0.4,0.4-0.4
		c0.3,0,0.4,0.2,0.4,0.4C245.5,39.2,245.2,39.3,245,39.3z"/>
	<path class="st0" d="M248.4,41c-0.8,0-1.4,0.7-1.4,1.6c0,0.9,0.6,1.6,1.4,1.6c0.8,0,1.5-0.7,1.5-1.6C249.9,41.7,249.3,41,248.4,41z
		 M248.5,46.5c-0.5,0-1.2-0.2-1.5-0.4l0.2-0.5c0.4,0.2,0.9,0.4,1.3,0.4c1,0,1.3-0.5,1.3-1.4v-0.4c-0.3,0.4-0.8,0.8-1.5,0.8
		c-1.2,0-2-1-2-2.2s0.8-2.2,2-2.2c0.6,0,1.2,0.3,1.5,0.8c0-0.2,0.1-0.5,0.1-0.6h0.5v4.1C250.5,45.7,249.7,46.5,248.5,46.5z"/>
	<path class="st0" d="M254.7,44.6V42c0-0.8-0.4-1.1-1-1.1c-0.8,0-1.3,0.7-1.3,1.7v2h-0.6v-4.2h0.5c0.1,0.2,0.1,0.6,0.1,0.8v0.1
		c0.3-0.6,0.8-0.9,1.4-0.9c0.8,0,1.5,0.6,1.5,1.5v2.7H254.7z"/>
	<path class="st1" d="M190.9,32.4c-0.4,0-0.6-0.1-0.9-0.3l2.2-2.4c0.2,0.3,0.3,0.6,0.3,1C192.5,31.6,191.8,32.4,190.9,32.4z
		 M189.3,30.7c0-0.9,0.6-1.7,1.5-1.7c0.3,0,0.6,0.1,0.9,0.3l-2.2,2.3C189.4,31.4,189.3,31.1,189.3,30.7z M192.8,29.1l0.4-0.4
		l-0.4-0.4l-0.4,0.4c-0.4-0.3-0.9-0.4-1.5-0.4c-1.5,0-2.5,1.2-2.5,2.5c0,0.6,0.2,1.2,0.6,1.6l-0.4,0.4l0.4,0.4l0.4-0.4
		c0.4,0.3,0.9,0.5,1.5,0.5c1.5,0,2.5-1.2,2.5-2.5C193.4,30.1,193.2,29.5,192.8,29.1z"/>
</g>
</svg>
