<?xml version="1.0" encoding="utf-8"?>
<!-- Generator: Adobe Illustrator 22.0.2, SVG Export Plug-In . SVG Version: 6.00 Build 0)  -->
<svg version="1.1" id="Layer_1" xmlns="http://www.w3.org/2000/svg" xmlns:xlink="http://www.w3.org/1999/xlink" x="0px" y="0px"
	 viewBox="0 0 56 112" style="enable-background:new 0 0 56 112;" xml:space="preserve">
<style type="text/css">
	.st0{fill:#868686;}
	.st1{fill:#4A4A4A;}
	.st2{fill:#FFFFFF;}
	.st3{fill:#E64800;}
</style>
<title>aho_design_symbol</title>
<g>
	<path class="st0" d="M28.3,24.5c6.8,0,12.2,5.5,12.2,12.2S35,49,28.3,49S16,43.5,16,36.8S21.5,24.5,28.3,24.5 M28.3,17.5
		C17.6,17.5,9,26.1,9,36.8S17.6,56,28.3,56s19.2-8.6,19.2-19.2S38.9,17.5,28.3,17.5L28.3,17.5z"/>
	<g>
		<path class="st1" d="M51,0H37v36.7h0c0,0,0,0,0,0.1c0,3.9,3.1,7,7,7s7-3.1,7-7c0,0,0,0,0-0.1h0V0z"/>
		<circle class="st2" cx="44" cy="36.8" r="3.5"/>
	</g>
</g>
<g>
	<path class="st3" d="M28.3,80.5c6.8,0,12.2,5.5,12.2,12.2c0,6.8-5.5,12.2-12.2,12.2S16,99.5,16,92.8C16,86,21.5,80.5,28.3,80.5
		 M28.3,73.5C17.6,73.5,9,82.1,9,92.8S17.6,112,28.3,112s19.2-8.6,19.2-19.2S38.9,73.5,28.3,73.5L28.3,73.5z"/>
	<g>
		<path class="st1" d="M51,56H37v36.7h0c0,0,0,0,0,0.1c0,3.9,3.1,7,7,7s7-3.1,7-7c0,0,0,0,0-0.1h0V56z"/>
		<circle class="st2" cx="44" cy="92.8" r="3.5"/>
	</g>
</g>
</svg>
