<?xml version="1.0" standalone="no"?>
<!DOCTYPE svg PUBLIC "-//W3C//DTD SVG 20010904//EN"
 "http://www.w3.org/TR/2001/REC-SVG-20010904/DTD/svg10.dtd">
<svg version="1.0" xmlns="http://www.w3.org/2000/svg"
 width="700.000000pt" height="700.000000pt" viewBox="0 0 700.000000 700.000000"
 preserveAspectRatio="xMidYMid meet">
<metadata>
Created by potrace 1.11, written by Peter Selinger 2001-2013
</metadata>
<g transform="translate(0.000000,700.000000) scale(0.100000,-0.100000)"
fill="#000000" stroke="none">
<path d="M5875 5501 l0 -1249 -25 13 c-200 100 -391 165 -590 201 -14 2 -34 6
-45 9 -90 19 -415 27 -566 13 -240 -22 -517 -106 -754 -228 -310 -161 -544
-369 -782 -696 -36 -48 -133 -221 -169 -300 -31 -68 -107 -269 -113 -299 -1
-5 -6 -26 -11 -45 -5 -19 -12 -50 -15 -69 -3 -19 -7 -37 -9 -40 -2 -3 -7 -28
-10 -55 -4 -27 -9 -52 -11 -56 -18 -29 -27 -431 -13 -560 72 -625 414 -1186
938 -1534 133 -89 237 -142 445 -227 35 -14 188 -60 235 -70 109 -24 130 -28
267 -48 71 -11 362 -10 448 0 199 24 328 54 500 116 202 72 458 213 592 326
180 151 272 246 383 392 224 297 346 596 416 1015 4 25 9 1079 11 2343 l4
2297 -563 0 -563 0 0 -1249z m-865 -2136 c232 -33 426 -134 588 -304 241 -252
331 -605 241 -947 -11 -41 -24 -83 -29 -92 -5 -9 -21 -44 -36 -77 -103 -231
-337 -437 -589 -519 -361 -118 -744 -25 -1014 245 -389 388 -394 1006 -12
1398 177 182 368 271 651 304 36 4 148 0 200 -8z"/>
<path d="M937 2374 c-1 -1 -27 -4 -57 -7 -251 -25 -511 -173 -673 -384 -140
-183 -208 -391 -202 -623 4 -147 9 -179 42 -285 160 -512 711 -809 1226 -660
223 64 417 204 547 391 48 69 115 197 125 240 3 10 15 53 26 94 18 61 22 103
23 225 0 159 -9 223 -50 340 -138 390 -500 655 -912 668 -51 2 -93 2 -95 1z"/>
</g>
</svg>
