<?xml version="1.0" standalone="no"?>
<!DOCTYPE svg PUBLIC "-//W3C//DTD SVG 20010904//EN"
 "http://www.w3.org/TR/2001/REC-SVG-20010904/DTD/svg10.dtd">
<svg version="1.0" xmlns="http://www.w3.org/2000/svg"
 width="700.000000pt" height="700.000000pt" viewBox="0 0 700.000000 700.000000"
 preserveAspectRatio="xMidYMid meet">
<metadata>
Created by potrace 1.11, written by Peter Selinger 2001-2013
</metadata>
<g transform="translate(0.000000,700.000000) scale(0.100000,-0.100000)"
fill="#000000" stroke="none">
<path d="M4625 5776 l0 -1224 -55 25 c-263 119 -486 183 -765 220 -125 17
-518 9 -635 -12 -14 -3 -41 -7 -60 -10 -19 -3 -42 -8 -50 -10 -8 -2 -26 -6
-40 -9 -187 -32 -570 -180 -691 -267 -15 -10 -30 -19 -33 -19 -16 0 -221 -145
-311 -219 -38 -32 -284 -278 -308 -310 -56 -71 -158 -215 -194 -272 -89 -142
-222 -436 -252 -557 -6 -20 -19 -71 -30 -112 -18 -66 -38 -166 -55 -280 -25
-162 -25 -518 -1 -635 3 -11 7 -36 9 -55 3 -19 10 -60 16 -90 6 -30 14 -66 16
-80 16 -77 72 -255 122 -381 90 -227 283 -524 471 -721 405 -426 928 -683
1521 -747 84 -9 451 -7 500 2 14 3 48 8 75 12 236 32 500 113 726 225 527 260
954 723 1174 1273 25 61 26 62 105 101 234 113 411 326 482 582 l22 79 2 2358
2 2357 -881 0 -882 0 0 -1224z m-930 -1860 c33 -4 78 -11 100 -16 22 -5 56
-12 75 -15 64 -11 244 -76 325 -117 139 -70 256 -152 363 -253 l54 -51 2 -604
c3 -595 3 -606 26 -690 38 -141 110 -272 213 -384 l45 -50 -21 -45 c-77 -165
-248 -374 -404 -494 -203 -156 -463 -270 -688 -301 -22 -3 -62 -9 -90 -12 -93
-13 -332 -6 -409 11 -12 3 -32 7 -46 9 -104 17 -261 72 -391 136 -298 147
-540 389 -688 687 -73 147 -103 238 -142 433 -14 68 -18 348 -7 435 56 433
312 838 683 1080 296 194 657 280 1000 241z m1960 -1107 c298 -105 378 -498
147 -717 -180 -171 -435 -170 -608 2 -241 241 -127 643 206 731 67 18 180 11
255 -16z"/>
</g>
</svg>
